<svg id="Layer_1" data-name="Layer 1" xmlns="http://www.w3.org/2000/svg" viewBox="0 0 580.43 89.29"><title>mathdroid</title><path d="M120.19,231h16.46l-1.79,11h0.69A21.42,21.42,0,0,1,155,230.19c8.45,0,14.1,4.59,15,11.83h0.65c3.7-7.19,11.58-11.83,20.77-11.83,11.54,0,18.41,7.72,16.14,21.26l-7,42H183.18l6.5-38.57c1.06-6.95-2.48-10.4-8-10.4-6.3,0-10.73,4.35-11.7,10.85l-6.46,38.12H146.73l6.58-38.93c0.93-6.14-2.24-10-8-10S134.41,249,133.4,256l-6.34,37.47H109.78Z" transform="translate(-109.78 -205.35)"/><path d="M214,276c2.36-13.9,14.1-18.09,26.66-19.22,10.93-1.1,15.36-1.63,16.09-5.61v-0.24c0.81-5.12-2-8.09-7.8-8.09-6.18,0-10.61,3-12.48,7.19l-15.77-1.3c4.23-11.38,15.32-18.53,30.32-18.53,13.82,0,25.4,6.26,23,21.13l-7,42.11H250.55l1.46-8.66h-0.49c-4,5.81-10.65,9.84-19.87,9.84C219.78,294.6,212,288.31,214,276Zm39.5-4.88,1.06-6.62c-2.24,1.38-8.62,2.19-12.4,2.8-6.26.85-10.77,3.25-11.54,8.13-0.73,4.71,2.56,7.23,8,7.23C246.2,282.66,252.38,277.66,253.52,271.11Z" transform="translate(-109.78 -205.35)"/><path d="M321.86,244H310.08l-5,30.24c-0.81,4.8,1.42,6.1,4.88,6.1a25.29,25.29,0,0,0,4.39-.57L315,292.65a35.06,35.06,0,0,1-9.71,1.63c-12.72.49-20-5.57-17.84-17.76L292.76,244h-8.54l2.19-13h8.49l2.48-15h17.31l-2.48,15H324Z" transform="translate(-109.78 -205.35)"/><path d="M343.56,293.43H326.28l13.82-83.23h16.78L351.68,242h0.69c4-7.36,11.14-11.83,20.65-11.83,13,0,20.12,8.86,17.68,23.49L384,293.43H366.76l6.1-36.66c1.26-7.68-2.15-12.19-9.14-12.19s-12.8,4.71-14.14,12.76Z" transform="translate(-109.78 -205.35)"/><path d="M400.52,262.29c3.54-21.46,16.87-32.11,30.6-32.11,10.45,0,14.43,6.22,15.85,11.3h0.53l5.2-31.29H470L456.2,293.43H439.13l1.67-10h-0.73c-3.29,5.2-9.47,11-19.51,11C406.25,294.44,397.07,283.18,400.52,262.29Zm43.93-.08c1.83-11.14-1.83-18.25-10.24-18.25-8.58,0-14.23,7.44-16,18.25s1.38,18.45,9.92,18.45C436.49,280.66,442.63,273.35,444.46,262.21Z" transform="translate(-109.78 -205.35)"/><path d="M480.74,231h16.78l-1.83,10.89h0.65c3.58-7.72,9.88-11.79,17-11.79a13.57,13.57,0,0,1,8,2.28l-7.48,14.22a12.8,12.8,0,0,0-5.73-1.38c-6.95,0-13.33,5.24-14.71,12.88l-5.81,35.32H470.33Z" transform="translate(-109.78 -205.35)"/><path d="M519.21,262.17c3.09-19.18,16.87-32,35.76-32s28.69,13.09,25.52,32.51c-3.13,19.1-16.91,31.94-35.76,31.94C525.68,294.65,516,281.56,519.21,262.17Zm43.85-.08c1.71-10.77-1.3-18.7-9.84-18.7-8.78,0-14.79,8.21-16.58,19.22-1.75,10.73,1.3,18.61,9.84,18.61C555.22,281.23,561.24,273.11,563.07,262.09Z" transform="translate(-109.78 -205.35)"/><path d="M597.07,231h17.31L604,293.43H586.67Zm2-16.91c0.57-4.84,5.24-8.74,10.36-8.74s8.9,3.9,8.37,8.74-5.2,8.78-10.36,8.78S598.49,218.89,599.1,214.09Z" transform="translate(-109.78 -205.35)"/><path d="M620.72,262.29c3.54-21.46,16.87-32.11,30.6-32.11,10.45,0,14.43,6.22,15.85,11.3h0.53l5.2-31.29h17.31L676.4,293.43H659.33l1.67-10h-0.73c-3.29,5.2-9.47,11-19.51,11C626.45,294.44,617.26,283.18,620.72,262.29Zm43.93-.08c1.83-11.14-1.83-18.25-10.24-18.25-8.58,0-14.23,7.44-16,18.25s1.38,18.45,9.92,18.45C656.69,280.66,662.82,273.35,664.65,262.21Z" transform="translate(-109.78 -205.35)"/></svg>