<?xml version="1.0" standalone="no"?>
<!DOCTYPE svg PUBLIC "-//W3C//DTD SVG 20010904//EN"
 "http://www.w3.org/TR/2001/REC-SVG-20010904/DTD/svg10.dtd">
<svg version="1.0" xmlns="http://www.w3.org/2000/svg"
 width="1024.000000pt" height="1024.000000pt" viewBox="0 0 1024.000000 1024.000000"
 preserveAspectRatio="xMidYMid meet">
<metadata>
Created by potrace 1.11, written by Peter Selinger 2001-2013
</metadata>
<g transform="translate(0.000000,1024.000000) scale(0.100000,-0.100000)"
fill="#000000" stroke="none">
<path d="M4648 6165 c-1 -1 -28 -6 -58 -9 -141 -17 -328 -80 -461 -155 -89
-51 -104 -58 -95 -43 2 4 7 28 10 52 3 25 9 60 12 78 l5 32 -895 0 c-493 0
-895 -3 -894 -7 2 -7 -7 -73 -18 -126 -2 -12 -6 -39 -9 -62 -3 -22 -8 -47 -10
-55 -2 -8 -6 -33 -10 -55 -3 -22 -10 -65 -15 -95 -5 -30 -12 -71 -15 -90 -3
-19 -7 -46 -10 -60 -3 -14 -7 -38 -9 -55 -3 -16 -8 -45 -11 -62 -5 -34 -10
-65 -19 -118 -3 -16 -14 -86 -26 -155 -21 -124 -26 -158 -36 -215 -3 -16 -7
-37 -9 -45 -2 -8 -6 -35 -9 -60 -3 -25 -8 -55 -10 -66 -2 -12 -7 -39 -10 -60
-4 -22 -11 -64 -16 -94 -5 -30 -12 -71 -15 -90 -3 -19 -7 -46 -10 -60 -3 -14
-7 -40 -10 -57 -3 -18 -7 -48 -10 -65 -6 -35 -10 -61 -20 -118 -3 -19 -10 -60
-15 -90 -5 -30 -12 -71 -15 -90 -3 -19 -7 -46 -10 -60 -3 -14 -7 -38 -9 -55
-3 -16 -8 -46 -11 -65 -8 -45 -14 -83 -19 -117 -3 -16 -12 -71 -21 -123 -9
-52 -18 -108 -21 -125 -2 -16 -6 -41 -9 -55 -3 -14 -7 -41 -10 -60 -3 -19 -8
-47 -10 -62 -3 -16 -7 -43 -10 -60 -3 -18 -10 -58 -15 -88 -5 -30 -12 -71 -15
-90 -3 -19 -7 -46 -10 -60 -3 -14 -7 -38 -9 -55 -3 -16 -17 -100 -31 -185 -14
-85 -28 -167 -30 -182 -3 -16 -7 -43 -10 -60 -3 -18 -8 -45 -10 -60 -3 -16 -7
-43 -10 -60 -13 -73 -16 -94 -21 -123 -2 -16 -6 -41 -9 -55 -3 -14 -7 -39 -10
-57 l-5 -32 122 -3 c181 -4 1727 -2 1732 3 2 2 7 22 10 44 4 22 17 103 31 180
13 77 27 158 30 180 3 22 8 51 11 65 7 37 12 65 28 165 8 50 26 155 40 235 14
80 27 161 31 180 3 19 7 46 10 60 3 14 7 41 10 60 6 37 23 138 31 180 2 14 13
79 24 145 11 66 22 130 24 141 5 26 14 81 21 132 3 20 9 51 12 67 3 17 7 39 9
50 1 11 12 74 24 140 11 66 23 131 25 145 48 297 89 406 196 522 38 40 134
108 154 108 7 0 35 -20 63 -45 53 -48 106 -143 119 -212 13 -71 5 -285 -11
-311 -2 -4 -7 -36 -11 -72 -3 -35 -8 -67 -10 -70 -2 -3 -15 -76 -30 -161 -14
-85 -27 -165 -30 -179 -2 -14 -8 -52 -14 -85 -6 -33 -13 -73 -16 -90 -2 -16
-23 -138 -45 -270 -22 -132 -42 -251 -45 -265 -2 -14 -7 -38 -10 -55 -3 -16
-19 -111 -35 -210 -17 -99 -39 -229 -49 -290 -11 -60 -22 -128 -25 -150 -4
-22 -15 -89 -26 -150 -11 -60 -22 -127 -25 -147 l-6 -38 113 -1 c354 -4 1470
-3 1568 1 l114 5 13 75 c21 124 22 134 27 155 2 11 7 40 11 65 4 25 9 54 11
65 2 11 8 47 13 80 6 33 19 112 30 175 11 63 22 129 24 145 8 48 78 457 84
490 3 17 7 39 8 50 2 11 8 49 15 85 6 36 13 79 16 95 3 17 11 66 19 110 8 44
16 98 20 120 3 22 14 90 25 150 11 61 22 126 25 145 3 19 10 60 15 90 5 30 12
71 15 90 3 19 8 42 10 50 2 8 7 40 10 70 10 86 61 224 109 299 48 73 118 141
179 172 l38 20 34 -21 c43 -27 80 -70 109 -129 56 -112 62 -242 21 -476 -14
-82 -29 -163 -31 -180 -18 -106 -66 -386 -70 -414 -3 -18 -7 -43 -10 -54 -2
-12 -6 -37 -9 -57 -3 -20 -7 -47 -10 -60 -3 -13 -7 -40 -10 -60 -3 -20 -7 -47
-10 -60 -3 -13 -7 -40 -10 -60 -3 -20 -8 -47 -10 -60 -7 -34 -25 -139 -31
-175 -2 -16 -7 -43 -10 -60 -3 -16 -8 -43 -10 -60 -3 -16 -9 -55 -14 -85 -5
-30 -12 -70 -15 -87 -3 -18 -7 -46 -10 -61 -3 -16 -21 -123 -41 -238 -50 -297
-53 -314 -60 -362 l-6 -42 119 -1 c363 -4 1525 -3 1623 1 l114 5 32 195 c18
107 35 213 38 235 7 47 11 71 31 180 8 44 17 96 19 115 6 42 44 277 50 305 2
11 7 40 11 65 4 25 8 52 10 60 1 8 6 38 10 65 5 28 9 52 10 55 3 11 15 87 21
125 3 22 7 47 9 55 2 8 7 38 11 65 3 28 8 59 10 70 3 11 7 36 10 55 2 19 9 58
14 85 5 28 12 68 15 90 14 87 16 102 26 155 5 30 11 66 14 80 3 13 7 42 10 65
3 22 8 47 10 55 2 8 7 35 10 60 10 75 24 159 30 180 2 8 7 35 10 60 12 88 17
116 26 156 30 138 33 527 5 573 -3 4 -8 22 -11 41 -19 109 -95 265 -181 372
-149 185 -311 282 -579 344 -71 17 -124 19 -480 19 -348 0 -460 -4 -525 -18
-8 -2 -33 -7 -55 -11 -40 -8 -183 -50 -220 -65 -150 -61 -288 -142 -406 -237
l-66 -53 -52 65 c-101 125 -263 230 -432 278 -135 39 -205 45 -576 44 -199 0
-363 -1 -365 -3z"/>
</g>
</svg>
